HIERARCHY
ROOT RootJoint
{
    OFFSET   0.000000   0.000000   0.000000
    CHANNELS 6 Xposition Yposition Zposition Xrotation Yrotation Zrotation
    JOINT pelvis_lowerback
    {
        OFFSET   0.000000   0.093605   0.000000
        CHANNELS 3 Xrotation Yrotation Zrotation
        JOINT lowerback_torso
        {
            OFFSET   0.000000   0.100000   0.000000
            CHANNELS 3 Xrotation Yrotation Zrotation
            JOINT torso_head
            {
                OFFSET   0.000000   0.282350   0.000000
                CHANNELS 3 Xrotation Yrotation Zrotation
                End Site
                {
                    OFFSET   0.000000   0.192650   0.000000
                }
            }
            JOINT rTorso_Clavicle
            {
                OFFSET  -0.001000   0.157500   0.000000
                CHANNELS 3 Xrotation Yrotation Zrotation
                JOINT rShoulder
                {
                    OFFSET  -0.117647   0.000000   0.000000
                    CHANNELS 3 Xrotation Yrotation Zrotation
                    JOINT rElbow
                    {
                        OFFSET  -0.245000   0.000000   0.000000
                        CHANNELS 3 Xrotation Yrotation Zrotation
                        JOINT rWrist
                        {
                            OFFSET  -0.240000   0.000000   0.000000
                            CHANNELS 3 Xrotation Yrotation Zrotation
                            End Site
                            {
                                OFFSET  -0.116353  -0.002500   0.000000
                            }
                        }
                    }
                }
            }
            JOINT lTorso_Clavicle
            {
                OFFSET   0.001000   0.157500   0.000000
                CHANNELS 3 Xrotation Yrotation Zrotation
                JOINT lShoulder
                {
                    OFFSET   0.117647   0.000000   0.000000
                    CHANNELS 3 Xrotation Yrotation Zrotation
                    JOINT lElbow
                    {
                        OFFSET   0.245000   0.000000   0.000000
                        CHANNELS 3 Xrotation Yrotation Zrotation
                        JOINT lWrist
                        {
                            OFFSET   0.240000   0.000000   0.000000
                            CHANNELS 3 Xrotation Yrotation Zrotation
                            End Site
                            {
                                OFFSET   0.116353  -0.002500   0.000000
                            }
                        }
                    }
                }
            }
        }
    }
    JOINT rHip
    {
        OFFSET  -0.100000  -0.051395   0.000000
        CHANNELS 3 Xrotation Yrotation Zrotation
        JOINT rKnee
        {
            OFFSET   0.000000  -0.410000   0.000000
            CHANNELS 3 Xrotation Yrotation Zrotation
            JOINT rAnkle
            {
                OFFSET   0.000000  -0.390000   0.000000
                CHANNELS 3 Xrotation Yrotation Zrotation
                JOINT rToeJoint
                {
                    OFFSET   0.000000  -0.050000   0.130000
                    CHANNELS 3 Xrotation Yrotation Zrotation
                    End Site
                    {
                        OFFSET  -0.010000   0.002000   0.060000
                    }
                }
            }
        }
    }
    JOINT lHip
    {
        OFFSET   0.100000  -0.051395   0.000000
        CHANNELS 3 Xrotation Yrotation Zrotation
        JOINT lKnee
        {
            OFFSET   0.000000  -0.410000   0.000000
            CHANNELS 3 Xrotation Yrotation Zrotation
            JOINT lAnkle
            {
                OFFSET   0.000000  -0.390000   0.000000
                CHANNELS 3 Xrotation Yrotation Zrotation
                JOINT lToeJoint
                {
                    OFFSET   0.000000  -0.050000   0.130000
                    CHANNELS 3 Xrotation Yrotation Zrotation
                    End Site
                    {
                        OFFSET   0.010000   0.002000   0.060000
                    }
                }
            }
        }
    }
}
MOTION
Frames: 8
Frame Time:   0.008333
 -2.313877   0.906914   4.583130  -4.994381  -0.472771   1.792676   7.059895   1.115920  -1.126294   7.869513  -2.440327   1.216343   1.374283  -0.795796   1.336962   3.283230   4.322164  11.665388  10.620619  11.954042  45.480028   0.000109  18.139884  -0.000602   8.936686   3.086812   1.884030   2.151617  -5.332192 -12.026125   9.517617 -13.692731 -47.689307  -0.000027 -16.800651  -0.000092   8.574484  -2.944776  -1.922007  14.681466   1.268881  -5.105915   8.621510   0.000034  -0.000263 -13.853420   0.978277   0.667331  -5.772035   0.001672   0.002864  -6.713693  -3.690241   3.293360  10.330459   0.000536  -0.000749   1.323907   5.304304  -0.189175  -1.604146   0.000080  -0.000271
 -2.312970   0.907171   4.584939  -4.855535  -0.480429   1.800796   7.151895   1.080840  -1.171592   7.819937  -2.436844   1.160951   1.232129  -0.811415   1.353437   3.187328   4.337355  11.689585  10.517867  11.910756  45.546937   0.000091  18.083571  -0.000524   8.921573   2.992814   1.840454   2.037539  -5.301363 -12.051679   9.477177 -13.641005 -47.619903  -0.000017 -16.814566  -0.000077   8.562017  -2.988857  -1.926915  14.648405   1.267026  -5.193177   8.598724   0.000012  -0.000208 -13.631965   0.971786   0.899938  -6.480157   0.002301   0.002456  -6.831130  -3.673207   3.213163  10.544207   0.000567  -0.000621   0.996077   5.334829  -0.083083  -1.447095   0.000031  -0.000193
 -2.311985   0.907458   4.586818  -4.719577  -0.482795   1.803932   7.240808   1.051598  -1.218631   7.769614  -2.427793   1.109529   1.097630  -0.827568   1.368512   3.085796   4.361108  11.714589  10.411805  11.879191  45.612287   0.000079  18.036278  -0.000447   8.904698   2.913233   1.791258   1.931796  -5.270015 -12.067803   9.440914 -13.590184 -47.549973  -0.000009 -16.827185  -0.000065   8.548915  -3.030242  -1.926291  14.613671   1.261781  -5.277166   8.589186   0.000003  -0.000165 -13.381818   0.967850   1.111661  -7.198130   0.002675   0.002128  -6.945953  -3.649271   3.120156  10.748287   0.000620  -0.000502   0.688828   5.367287   0.010582  -1.310086   0.000033  -0.000119
 -2.310921   0.907736   4.588771  -4.586715  -0.476762   1.800157   7.324118   1.029375  -1.263154   7.719322  -2.413387   1.062339   0.972201  -0.842875   1.381954   2.984127   4.389294  11.737777  10.307301  11.854779  45.673436   0.000072  17.995347  -0.000373   8.887799   2.853281   1.740151   1.833658  -5.239798 -12.076506   9.408142 -13.541439 -47.481283  -0.000004 -16.838554  -0.000057   8.536511  -3.067351  -1.921672  14.581903   1.252771  -5.355367   8.588943   0.000003  -0.000132 -13.120647   0.963328   1.303451  -7.909208   0.002832   0.001858  -7.062175  -3.622140   3.011694  10.928871   0.000680  -0.000392   0.399027   5.399285   0.094730  -1.184062   0.000071  -0.000053
 -2.309783   0.907979   4.590806  -4.457801  -0.465936   1.787304   7.401280   1.015184  -1.304153   7.669769  -2.393368   1.019615   0.855210  -0.857083   1.394212   2.884213   4.420101  11.758704  10.205902  11.835472  45.729956   0.000068  17.959340  -0.000306   8.871251   2.808026   1.688052   1.743255  -5.209940 -12.079441   9.378994 -13.494314 -47.414278  -0.000001 -16.848580  -0.000051   8.524736  -3.099687  -1.913572  14.555841   1.242045  -5.426478   8.596174   0.000007  -0.000106 -12.859161   0.959576   1.478904  -8.604833   0.002829   0.001631  -7.178261  -3.595878   2.894367  11.093629   0.000737  -0.000304   0.128190   5.428598   0.173291  -1.069894   0.000120  -0.000004
 -2.308577   0.908173   4.592925  -4.332807  -0.452036   1.764333   7.471930   1.008170  -1.341331   7.621177  -2.368443   0.981198   0.745952  -0.870221   1.405524   2.787022   4.452394  11.777514  10.108298  11.820065  45.781961   0.000066  17.927364  -0.000247   8.855185   2.773573   1.635235   1.660594  -5.180000 -12.078000   9.353544 -13.448462 -47.349357   0.000002 -16.857171  -0.000046   8.513555  -3.126670  -1.902719  14.536820   1.230426  -5.489894   8.609413   0.000016  -0.000086 -12.603984   0.957167   1.640883  -9.280876   0.002718   0.001436  -7.293065  -3.570857   2.772572  11.244906   0.000786  -0.000233  -0.124775   5.455460   0.246641  -0.965852   0.000172   0.000031
 -2.307337   0.908373   4.595138  -4.205579  -0.459246   1.755116   7.531836   1.015067  -1.400634   7.572576  -2.334547   0.937320   0.643570  -0.882123   1.415210   2.692124   4.487142  11.802951  10.013309  11.809644  45.834122   0.000063  17.899194  -0.000198   8.839797   2.748492   1.583771   1.587259  -5.147475 -12.072007   9.333785 -13.401382 -47.283341   0.000003 -16.862985  -0.000041   8.503035  -3.142865  -1.885859  14.517738   1.227747  -5.574166   8.627015   0.000026  -0.000072 -12.352979   0.963186   1.786370  -9.940881   0.002510   0.001266  -7.379670  -3.575700   2.686019  11.456503   0.000804  -0.000255  -0.329741   5.463345   0.337843  -0.878426   0.000137   0.000003
 -2.305945   0.908621   4.597512  -4.115798  -0.502402   1.768342   7.614473   1.025199  -1.462195   7.515432  -2.301042   0.868698   0.562436  -0.899922   1.447833   2.585602   4.506649  11.813650   9.874209  11.803378  45.931580   0.000065  17.864805  -0.000183   8.833012   2.697105   1.525940   1.524749  -5.086718 -12.061670   9.344356 -13.368783 -47.222022   0.000017 -16.902058  -0.000050   8.502064  -3.150509  -1.870897  14.495517   1.237370  -5.710051   8.734681   0.000120  -0.000097 -12.079465   0.999960   2.032298 -10.691820   0.002908   0.001187  -7.362274  -3.601716   2.562882  11.573715   0.000751  -0.000309  -0.507666   5.495447   0.450424  -0.747781   0.000098  -0.000076
